<?xml version="1.0" standalone="no"?>
<svg version="1.0" xmlns="http://www.w3.org/2000/svg"
 width="512.000000pt" height="512.000000pt" viewBox="0 0 512.000000 512.000000"
 preserveAspectRatio="xMidYMid meet">

<g transform="translate(0.000000,512.000000) scale(0.100000,-0.100000)"
fill="#122ab2" stroke="none">
<path d="M584 4461 c-17 -11 -36 -34 -43 -52 -7 -21 -11 -128 -11 -306 0 -230
3 -280 16 -308 31 -65 28 -65 574 -65 546 0 543 0 574 65 22 46 24 567 2 620
-28 66 -19 65 -578 65 -477 0 -505 -1 -534 -19z m906 -351 l0 -160 -370 0
-370 0 0 160 0 160 370 0 370 0 0 -160z"/>
<path d="M1985 4471 c-11 -5 -29 -19 -40 -31 -19 -21 -20 -38 -23 -534 -3
-459 -1 -514 13 -542 9 -18 28 -37 41 -43 35 -16 1133 -16 1168 0 13 6 32 25
41 43 14 28 16 83 13 543 l-3 513 -28 27 -27 28 -568 2 c-312 1 -576 -2 -587
-6z m1003 -578 l2 -373 -430 0 -430 0 0 368 c0 203 3 372 7 375 3 4 196 6 427
5 l421 -3 3 -372z"/>
<path d="M3464 4461 c-17 -11 -36 -34 -43 -52 -8 -22 -11 -237 -11 -731 0
-766 -1 -751 59 -782 26 -14 96 -16 531 -16 556 0 548 -1 576 65 21 51 21
1419 0 1470 -28 66 -19 65 -578 65 -477 0 -505 -1 -534 -19z m906 -781 l0
-590 -370 0 -370 0 0 590 0 590 370 0 370 0 0 -590z"/>
<path d="M584 3501 c-17 -11 -36 -34 -43 -52 -18 -51 -15 -989 3 -1033 29 -69
4 -66 576 -66 572 0 547 -3 576 66 21 50 21 989 0 1039 -28 66 -19 65 -578 65
-477 0 -505 -1 -534 -19z m906 -566 l0 -375 -370 0 -370 0 0 375 0 375 370 0
370 0 0 -375z"/>
<path d="M1973 3078 c-11 -5 -28 -24 -38 -42 -14 -28 -16 -82 -13 -543 l3
-513 28 -27 27 -28 580 0 580 0 27 28 28 27 3 513 c3 460 1 515 -13 543 -9 18
-28 37 -41 43 -33 15 -1139 14 -1171 -1z m1015 -570 l-3 -373 -425 0 -425 0
-3 373 -2 372 430 0 430 0 -2 -372z"/>
<path d="M3473 2654 c-63 -31 -63 -30 -63 -574 0 -427 2 -496 16 -525 31 -65
28 -65 574 -65 546 0 543 0 574 65 14 29 16 98 16 525 0 546 0 543 -65 574
-29 14 -98 16 -527 16 -427 0 -497 -3 -525 -16z m897 -574 l0 -370 -370 0
-370 0 0 370 0 370 370 0 370 0 0 -370z"/>
<path d="M581 2114 c-51 -36 -51 -31 -51 -785 0 -778 -2 -751 65 -783 29 -14
98 -16 525 -16 427 0 496 2 525 16 67 32 65 5 65 783 0 754 0 749 -51 785 -21
14 -79 16 -539 16 -460 0 -518 -2 -539 -16z m909 -779 l0 -585 -370 0 -370 0
0 585 0 585 370 0 370 0 0 -585z"/>
<path d="M1983 1695 c-64 -27 -63 -21 -63 -575 0 -556 -1 -548 65 -576 51 -21
1099 -21 1150 0 66 28 65 20 65 576 0 556 1 548 -65 576 -50 21 -1104 20
-1152 -1z m1007 -575 l0 -370 -430 0 -430 0 0 370 0 370 430 0 430 0 0 -370z"/>
<path d="M3464 1261 c-17 -11 -36 -34 -43 -52 -7 -21 -11 -128 -11 -306 0
-230 3 -280 16 -308 31 -65 28 -65 574 -65 546 0 543 0 574 65 22 46 24 567 2
620 -28 66 -19 65 -578 65 -477 0 -505 -1 -534 -19z m906 -351 l0 -160 -370 0
-370 0 0 160 0 160 370 0 370 0 0 -160z"/>
</g>
</svg>
